HIERARCHY
ROOT Hips
{
     OFFSET 1.88212 96.90440 -13.34250
     CHANNELS 6 Xposition Yposition Zposition Zrotation Xrotation Yrotation
     JOINT Spine
     {
          OFFSET 0.00000 11.89050 0.00000
          CHANNELS 3 Zrotation Xrotation Yrotation
          JOINT Spine1
          {
               OFFSET -0.00000 25.65740 0.12766
               CHANNELS 3 Zrotation Xrotation Yrotation
               JOINT HEad
               {
                    OFFSET 0.00000 8.73416 0.01134
                    CHANNELS 3 Zrotation Xrotation Yrotation
                    End Site
                    {
                         OFFSET -0.29000 12.77420 2.51395
                    }
               }
               JOINT LeftShoulder1
               {
                    OFFSET 8.99000 -0.36225 -0.22000
                    CHANNELS 3 Zrotation Xrotation Yrotation
                    JOINT LeftArm
                    {
                         OFFSET 10.28270 -0.00338 0.32212
                         CHANNELS 3 Zrotation Xrotation Yrotation
                         JOINT LeftForeArm
                         {
                              OFFSET 32.76690 0.09914 -1.42434
                              CHANNELS 3 Zrotation Xrotation Yrotation
                              JOINT LeftHand
                              {
                                   OFFSET 27.56430 0.08536 1.02216
                                   CHANNELS 3 Zrotation Xrotation Yrotation
                                   End Site
                                   {
                                        OFFSET 16.74430 -0.60000 1.50291
                                   }
                              }
                         }
                    }
               }
               JOINT RightShoulder
               {
                    OFFSET -8.99000 -0.36225 -0.22000
                    CHANNELS 3 Zrotation Xrotation Yrotation
                    JOINT RightArm
                    {
                         OFFSET -10.28270 -0.00338 0.32212
                         CHANNELS 3 Zrotation Xrotation Yrotation
                         JOINT RightForeArm
                         {
                              OFFSET -32.89710 0.09914 -1.42434
                              CHANNELS 3 Zrotation Xrotation Yrotation
                              JOINT RightHand
                              {
                                   OFFSET -27.49210 0.08536 1.02216
                                   CHANNELS 3 Zrotation Xrotation Yrotation
                                   End Site
                                   {
                                        OFFSET -16.63120 -0.60000 1.50291
                                   }
                              }
                         }
                    }
               }
          }
     }
     JOINT LeftUpLeg
     {
          OFFSET 8.94580 -8.66707 0.10165
          CHANNELS 3 Zrotation Xrotation Yrotation
          JOINT LeftLeg
          {
               OFFSET 0.00000 -44.42270 1.37270
               CHANNELS 3 Zrotation Xrotation Yrotation
               JOINT LeftFoot
               {
                    OFFSET -0.25355 -42.09240 -1.46059
                    CHANNELS 3 Zrotation Xrotation Yrotation
                    JOINT LeftToes
                    {
                         OFFSET -0.04000 -4.41509 8.49910
                         CHANNELS 3 Zrotation Xrotation Yrotation
                         End Site
                         {
                              OFFSET 0.08000 -0.04745 9.77979
                         }
                    }
               }
          }
     }
     JOINT RightUpLeg
     {
          OFFSET -8.94580 -8.66707 0.10165
          CHANNELS 3 Zrotation Xrotation Yrotation
          JOINT RightLeg
          {
               OFFSET 0.00000 -44.42270 1.37270
               CHANNELS 3 Zrotation Xrotation Yrotation
               JOINT RightFoot
               {
                    OFFSET 0.25355 -42.09240 -1.46059
                    CHANNELS 3 Zrotation Xrotation Yrotation
                    JOINT RightToes
                    {
                         OFFSET 0.04000 -4.41509 8.49910
                         CHANNELS 3 Zrotation Xrotation Yrotation
                         End Site
                         {
                              OFFSET -0.08000 -0.13745 9.77979
                         }
                    }
               }
          }
     }
}
MOTION
Frames: 10
Frame Time: 0.01667
18.30183 60.35438 -118.04774 5.80292 -3.90206 11.14295 -22.49213 34.60726 14.25243 0.02421 0.11564 -0.01153 5.44794 -4.10452 -9.09415 2.53212 6.46038 -4.16085 -77.38306 -9.08984 -107.00241 3.16891 37.54358 -98.93745 36.97723 -0.72759 -16.09525 30.25500 12.44525 0.26959 44.65146 -18.83901 68.56929 -1.69144 27.14620 128.89058 -40.27024 11.36835 -9.97412 33.35992 -59.65874 30.14679 93.21140 86.26430 -96.12669 71.29179 -0.00424 -0.01218 -90.82219 -2.33323 -4.10725 -26.13457 -35.28849 -18.52855 -109.94019 60.93694 80.14175 2.68353 -0.15769 0.23712 -13.94644 -49.40960 -2.05556 
16.97310 58.63595 -118.57839 5.76956 -5.03777 12.81489 -20.75634 37.26403 13.05006 0.00112 0.01308 -0.00751 4.53831 -5.66242 -9.30225 1.79960 6.78214 -3.86683 -78.17522 -11.02388 -108.31872 3.22795 38.41024 -98.95329 37.70675 -1.58446 -16.08084 28.76799 12.22470 0.95602 45.59635 -19.75877 68.35991 -1.17846 28.94275 128.41174 -40.75168 11.14845 -9.86438 34.54890 -61.32399 30.36477 113.20922 84.91796 -117.92426 72.60707 -0.00692 -0.01294 -92.12514 -2.34447 -2.98755 -28.17316 -36.81147 -16.10658 -110.65117 62.12531 82.58788 -2.55092 -0.13131 0.22036 -3.31844 -41.42297 1.12778 
15.58091 56.77547 -119.20464 5.82876 -6.00561 14.22669 -18.78939 39.22021 11.69540 0.00150 0.01207 -0.00359 3.48756 -6.90849 -9.37986 0.90998 7.29716 -3.41918 -78.94431 -12.37417 -109.38071 3.12374 39.04723 -99.12782 38.24983 -1.59069 -16.08202 27.21353 12.34024 1.80200 46.36466 -20.78148 68.03448 -0.58911 30.71124 127.80190 -40.98939 10.94085 -9.53885 35.85127 -63.02782 30.87174 122.82219 83.51483 -129.11858 73.76955 -0.00933 -0.01247 -92.83651 -2.21252 -1.80729 -29.00770 -37.97340 -11.92011 -112.51684 64.65900 87.62144 -8.24114 -0.03814 0.20548 -15.82133 -53.75651 -6.04078 
14.24510 54.98858 -119.87077 5.96148 -6.80483 15.41215 -16.64476 40.57299 10.22142 0.00140 0.01622 -0.00176 2.32860 -7.82430 -9.33516 -0.14377 8.02020 -3.12242 -80.89574 -16.84545 -109.82352 0.07968 39.67373 -100.19554 38.75468 -1.42457 -16.03754 25.59194 12.70652 2.58802 46.97197 -21.67295 67.68874 0.01181 32.29871 127.11610 -41.17557 10.99632 -9.21913 37.35237 -64.68749 31.70088 127.41863 82.22861 -135.15219 74.61501 -0.00927 -0.01023 -93.37192 -1.85663 -0.64971 -29.03174 -38.89075 -6.30861 -115.62883 67.91845 95.28450 -8.93427 -0.07273 0.04774 -7.70133 -45.17013 -4.49914 
12.84990 53.25587 -120.45631 6.15467 -7.44794 16.40752 -14.41691 41.41270 8.69112 -0.00074 0.02002 -0.00053 1.10125 -8.47362 -9.16509 -1.28493 8.87533 -2.92092 -82.28371 -19.40643 -110.24301 -1.25616 40.36651 -100.85166 39.24210 -0.94462 -16.12560 23.88368 13.24736 3.32316 47.45113 -22.40782 67.33473 0.57627 33.62826 126.41131 -41.13744 11.06038 -8.95049 39.16349 -66.19899 32.90876 128.93723 81.05196 -138.06633 74.97318 -0.00598 -0.00684 -93.50686 -1.40208 0.51474 -28.64303 -39.63232 0.28750 -120.18876 71.52310 105.19928 -6.30775 -0.19343 -0.07907 -14.17146 -42.83288 -11.01478 
11.01790 51.32629 -120.76000 6.43666 -7.96785 17.25181 -12.24985 41.82704 7.20297 -0.00021 0.02259 0.00088 -0.13289 -9.80939 -7.58933 -2.61378 9.72035 -2.70159 -83.29114 -20.96207 -110.29954 -1.50593 41.01035 -101.53254 40.79559 18.00394 -14.04095 22.02216 13.83175 4.15785 47.81945 -22.94729 66.84194 0.97187 34.65599 125.79442 -40.80252 11.25098 -8.86348 42.32204 -66.74972 34.63863 128.64365 80.73125 -139.96982 74.66143 -0.00048 -0.00279 -93.05945 -0.99966 1.74190 -28.34152 -40.38483 7.33156 -134.45021 74.95931 124.01604 2.80696 -0.44001 -0.07466 1.09410 -40.08566 -5.32397 
9.00195 49.50986 -120.82494 6.78674 -8.39591 17.96078 -10.20802 41.90516 5.82089 -0.00101 0.02479 0.00092 -1.42173 -11.69457 -4.74189 -3.91461 10.59747 -2.65068 -86.72672 -25.09110 -109.90723 -3.61970 42.80409 -103.77347 42.18425 8.10050 -15.52670 20.19951 14.46570 4.89257 48.03144 -23.17256 66.40062 1.16396 35.41777 125.25922 -40.53759 11.49263 -8.90186 46.28570 -66.54054 36.40598 127.70531 81.14931 -141.76851 73.69354 0.00397 0.00062 -92.35254 -0.61805 2.80689 -27.43930 -41.65639 14.26328 -156.57611 75.66553 149.18983 7.57146 -0.26523 0.00822 -10.04071 -41.58863 -10.75719 
6.74542 47.79922 -120.61923 7.19741 -8.75941 18.54851 -8.37397 41.71656 4.62498 -0.00344 0.02597 0.00116 -2.62565 -13.18553 -2.09249 -5.24575 11.49456 -2.45881 -88.96690 -27.24464 -109.38194 -0.23028 41.98773 -104.11087 40.89131 8.84864 -15.86752 18.48531 15.11927 5.50629 48.11229 -23.07583 66.06343 1.16740 35.94736 124.74113 -40.14626 11.76842 -9.07629 50.45288 -65.74561 37.69605 126.56191 82.25128 -143.65923 72.10770 0.00672 0.00300 -91.18499 -0.31591 3.79659 -26.11215 -43.27903 20.95332 -176.12189 73.46889 170.96191 13.75031 -0.23956 0.05816 10.64960 -43.41373 1.71946 
3.99307 46.10226 -120.05171 7.69536 -9.07822 19.04375 -6.74767 41.31732 3.63411 0.00190 0.02516 0.00116 -4.22263 -14.92514 1.65718 -6.34839 12.29274 -2.17606 -93.79418 -31.14021 -108.60098 0.10992 43.38729 -107.09305 41.44465 0.51487 -17.59136 17.09045 15.70641 5.62713 46.65607 -19.33366 67.96100 0.33015 33.93826 121.47935 -39.62277 12.12479 -9.31033 53.99827 -64.60461 37.83291 113.33358 83.04302 -133.23436 68.25237 0.02206 0.00406 -89.27211 0.20238 4.41939 -25.48218 -44.75085 26.02209 -186.95274 70.13560 183.93909 19.46757 -0.19405 0.08383 -0.02234 -45.88141 -1.46119 
1.06582 44.53047 -119.27998 8.25184 -9.36933 19.46285 -5.34813 40.75941 2.88441 -0.00119 0.02688 0.00192 -5.69053 -16.25092 5.05248 -7.28287 13.12879 -1.87975 -97.10811 -33.17102 -107.78125 0.85342 44.45618 -109.44868 41.26851 2.39897 -17.13632 15.87556 16.32585 5.64998 45.36747 -16.87101 68.81886 -0.35434 32.64271 119.84874 -39.15689 12.52907 -9.82720 56.25317 -63.34319 36.29612 90.36501 83.26624 -112.35556 62.92476 0.03565 0.00117 -87.01118 0.92174 4.74459 -25.21619 -46.24648 29.54667 -192.10205 66.51893 190.93021 23.27639 -0.15924 0.07151 1.23645 -46.76397 1.75674 
